<?xml version="1.0" standalone="no"?><!DOCTYPE svg PUBLIC "-//W3C//DTD SVG 1.1//EN" "http://www.w3.org/Graphics/SVG/1.1/DTD/svg11.dtd"><svg t="1506143851058" class="icon" style="" viewBox="0 0 1024 1024" version="1.1" xmlns="http://www.w3.org/2000/svg" p-id="693" xmlns:xlink="http://www.w3.org/1999/xlink" width="200" height="200"><defs><style type="text/css"></style></defs><path d="M148.544 30.16c4.256-6.56 10.864-13.568 19.456-12.496 15.248 1.568 29.392 8.096 43.152 14.48 39.376 19.536 76.112 44.112 110.8 71.04 45.024-19.68 92.912-32.992 141.824-38.064 59.44-6.368 120.08-1.44 177.664 14.608a98.032 98.032 0 0 1 4.304 7.456 118.0192 118.0192 0 0 0-11.008 9.552c-1.2-1.168-2.4-2.336-3.584-3.504-0.72 0.768-1.44 1.552-2.128 2.336 2.352 3.344 6.256 4.352 9.968 5.376-2.656 2.192-6.464 0.464-9.584 0.56-1.712 1.824-3.328 3.696-4.96 5.584 0-2.176 0-4.352-0.016-6.528-2.48 5.504-6.896 9.568-11.008 13.824-0.912-0.864-1.824-1.712-2.704-2.576-5.904 0.336-10.8 3.872-16.272 5.648 1.056 0.656 2.144 1.296 3.216 1.952-0.528 4.288-4.688 5.872-8.384 6.624 0.016-3.168 0.336-6.528-1.344-9.376-2.16 4.496-1.696 9.28 1.712 12.992-4.064 1.248-7.6-2.08-11.552-1.888-4.864 2.32-6.592 9.248-12.688 9.376 0.544 2.848 1.344 5.648 2.224 8.416-1.568-1.408-3.344-2.64-4.576-4.352-1.008-2.848 0.032-6.704-2.88-8.56-0.624 0.368-1.856 1.104-2.48 1.488 1.84 3.728 2.544 8.352-1.504 11.008-2.512-1.6-1.904-5.536-3.904-7.744-2.112 1.392-4.192 2.816-6.272 4.272 1.024 0.432 3.072 1.264 4.096 1.696-5.264 3.104-11.408 5.712-14.64 11.152-1.456 1.584-3.296 2.752-4.976 4.08-1.232-2.496-1.616-5.232-1.728-7.984-2.608 2.752-5.2 5.504-7.712 8.336 1.104 0.88 2.208 1.776 3.328 2.688-1.648 3.168-5.68 2.704-8.624 3.488 1.76 1.28 3.536 2.544 5.344 3.792 0.224 2.48-1.392 4.336-2.928 6.048-2.912-1.92-4.032-5.392-5.824-8.224-1.248 1.744-3.152 2.496-5.2 2.8 1.344 1.424 2.672 2.864 4.016 4.304l-2.656 1.232c0.032 1.408 1.424 3.104 0.224 4.32-2.064 2.48-4.416-0.656-6.352-1.6-2.128-1.712-4.976-1.248-7.504-1.28-0.528 0.64-1.6 1.92-2.144 2.56 2.064 0.4 4.144 0.752 6.224 1.152-3.808 5.504-10.384 6.288-16.128 8.544-0.288-2.56 0.032-5.472-1.952-7.44-7.232 3.376-12.72 9.44-19.568 13.472 0.384 0.768 1.168 2.304 1.552 3.056-1.216 1.52-2.496 2.976-3.84 4.368-1.648-0.352-3.28-0.688-4.928-1.008-1.152 0.784-2.304 1.584-3.44 2.368-1.952-0.624-3.904-1.264-5.84-1.888-1.472 2.032-2.928 4.08-4.384 6.112-1.072-2.992-1.968-6.048-2.816-9.104-2.128 2.512-3.28 5.456-1.44 8.496-5.312 1.904-11.584 4.448-13.168 10.496 1.728 0.24 3.456 0.464 5.2 0.704 0 1.968-0.352 3.92-1.344 5.648-3.456-1.424-6.272-4.432-10.128-4.784 0.08 1.776 0.192 3.552 0.288 5.344-2.384 0.48-6.832-1.792-7.424 1.52 3.232 0.4 6.448 1.008 9.6 1.872-2.896 0.608-5.808 1.152-8.704 1.744-0.16 1.264-0.32 2.528-0.464 3.792-2.736-2.208-5.552-4.32-8.608-6.048 0.4 3.12 3.072 4.944 5.104 7.04-3.968-0.16-7.952-0.288-11.92-0.096-0.624 1.616-1.232 3.248-1.84 4.88l-3.392-3.008c-1.12 1.168-2.224 2.336-3.312 3.504l0.288-6.16c-1.824 1.024-4.848 1.568-5.104 4.096 0.096 2.96 1.2 5.76 1.92 8.592-0.352 0.352-1.072 1.072-1.44 1.424-0.992-1.792-1.984-3.568-2.96-5.344-1.856 0.656-3.568 1.616-5.168 2.736 0.848 2.192 1.728 4.368 2.608 6.544-5.888-0.336-12.4-0.544-17.152 3.552-0.512-1.216-1.024-2.432-1.52-3.632-0.64 3.424-2.48 6.192-5.6 7.792-3.728-5.104-9.008-10.624-15.952-9.744-11.12 1.44-21.136 6.944-30.864 12.208-21.552 12.464-41.6 27.408-60.32 43.776-5.936 5.344-11.888 10.72-17.088 16.8-29.28 3.168-58.384 14.416-79.952 34.864-14.816 13.92-25.392 33.168-26.08 53.76-0.576 20.08 3.296 41.04 15.072 57.696-30.496 3.568-60.88 8.192-90.896 14.736 6.784-64.704 27.264-127.92 59.728-184.32 6.288-11.344 13.76-22.032 20.512-33.056-4.512-27.664-6.352-55.728-6.048-83.744 0.352-35.904 3.584-71.888 11.52-106.944 3.936-15.616 8.304-31.52 16.976-45.28z" fill="#FEE884" p-id="694"></path><path d="M779.36 32.56c22.416-8.688 46.16-15.168 70.368-14.896 9.776 0.656 17.328 8.144 22.496 15.856 8.336 12.88 13.072 27.68 16.896 42.432 8.256 33.808 11.504 68.656 12.816 103.36 0.8 27.456 0.656 55.024-2.544 82.32-12.144-16.832-25.312-32.928-39.024-48.512-8.56-8.48-17.008-17.072-25.648-25.472-13.936-11.664-27.312-24.096-42.4-34.304-35.104-26.464-74.56-46.848-115.664-62.304 31.92-23.168 65.952-43.904 102.704-58.48z" fill="#FEE987" p-id="695"></path><path d="M641.44 79.728c11.872 3.36 23.616 7.136 35.216 11.312 41.104 15.456 80.56 35.84 115.664 62.304 15.088 10.208 28.464 22.64 42.4 34.304 8.64 8.4 17.088 16.992 25.648 25.472 13.712 15.584 26.88 31.68 39.024 48.512 10.736 15.808 21.072 31.904 30.096 48.768-5.184 1.184-10.448 4.608-15.856 2.656-2.24 1.344-4.464 2.752-6.656 4.176 2.4 6.416-7.424 8.432-7.312 14.672-2.128 0-4.24 0.112-6.304 0.592 0.656 1.808 1.36 3.6 2.096 5.376-1.52 2.16-4.256 2.208-6.576 2.784 0.432 2.288 0.912 4.56 1.504 6.832-3.888-3.168-6.208-7.632-9.184-11.536-1.008-1.664-2.96-1.024-4.496-0.912 0.544 0.832 1.6 2.496 2.128 3.328a45.6112 45.6112 0 0 0-5.952 6.48c-3.568-0.128-9.264-2.4-10.544 2.512 0.304 3.136 1.536 6.064 2.512 9.04-2.176-0.096-4.352-0.192-6.512-0.304-0.912 1.68-1.856 3.344-2.656 5.072-1.232-1.952-2.432-3.92-3.6-5.888-0.224 3.648-2.224 6.736-3.504 10.064-1.712-0.672-3.408-1.344-5.104-2-2.368 1.44-4.672 2.944-6.992 4.432-2.32-0.608-4.624-1.28-6.816-2.208-9.84-13.408-24.112-22.88-39.184-29.456-23.968-10.4-50.016-14.816-75.872-17.296-9.536-7.232-20.144-12.864-30.464-18.848-33.024-18.128-67.12-34.816-103.184-45.92-12.928-3.6-28.032-7.728-40.24 0.16-15.328 9.952-22.576 28.112-26.672 45.184-3.104 16.096-5.584 33.056-1.552 49.216 3.968 15.024 14.416 27.616 26.976 36.432-5.808 17.104-3.856 36.048 1.872 52.896 7.28 20.72 24.512 36.48 44.112 45.568 15.856 7.568 33.056 11.824 50.32 14.704-13.712 7.568-28.272 14.016-43.792 16.72-25.072 4.368-51.76 1.616-74.624-9.888-21.984-10.576-40.96-26.784-63.952-35.376-24.512-9.376-51.792-11.216-77.472-6.096-18.544 3.616-35.152 14.048-47.936 27.76-10.16 10.064-18.88 22.896-32.928 27.824-15.712 5.216-32.944-1.28-44.56-12.24 31.232-2.128 62.496-13.264 85.936-34.432 14.88-13.344 26.096-31.648 28.016-51.824 1.216-15.488-1.136-31.376-7.52-45.568 13.12-16.288 13.424-38.512 12.112-58.384-2.048-19.856-6.368-40.192-17.12-57.296 3.12-1.6 4.96-4.368 5.6-7.792 0.496 1.2 1.008 2.416 1.52 3.632 4.752-4.096 11.264-3.888 17.152-3.552-0.88-2.176-1.76-4.352-2.608-6.544 1.6-1.12 3.312-2.08 5.168-2.736 0.976 1.776 1.968 3.552 2.96 5.344 0.368-0.352 1.088-1.072 1.44-1.424-0.72-2.832-1.824-5.632-1.92-8.592 0.256-2.528 3.28-3.072 5.104-4.096l-0.288 6.16c1.088-1.168 2.192-2.336 3.312-3.504l3.392 3.008c0.608-1.632 1.216-3.264 1.84-4.88 3.968-0.192 7.952-0.064 11.92 0.096-2.032-2.096-4.704-3.92-5.104-7.04 3.056 1.728 5.872 3.84 8.608 6.048 0.144-1.264 0.304-2.528 0.464-3.792 2.896-0.592 5.808-1.136 8.704-1.744-3.152-0.864-6.368-1.472-9.6-1.872 0.592-3.312 5.04-1.04 7.424-1.52-0.096-1.792-0.208-3.568-0.288-5.344 3.856 0.352 6.672 3.36 10.128 4.784 0.992-1.728 1.344-3.68 1.344-5.648-1.744-0.24-3.472-0.464-5.2-0.704 1.584-6.048 7.856-8.592 13.168-10.496-1.84-3.04-0.688-5.984 1.44-8.496 0.848 3.056 1.744 6.112 2.816 9.104 1.456-2.032 2.912-4.08 4.384-6.112 1.936 0.624 3.888 1.264 5.84 1.888 1.136-0.784 2.288-1.584 3.44-2.368 1.648 0.32 3.28 0.656 4.928 1.008 1.344-1.392 2.624-2.848 3.84-4.368-0.384-0.752-1.168-2.288-1.552-3.056 6.848-4.032 12.336-10.096 19.568-13.472 1.984 1.968 1.664 4.88 1.952 7.44 5.744-2.256 12.32-3.04 16.128-8.544-2.08-0.4-4.16-0.752-6.224-1.152 0.544-0.64 1.616-1.92 2.144-2.56 2.528 0.032 5.376-0.432 7.504 1.28 1.936 0.944 4.288 4.08 6.352 1.6 1.2-1.216-0.192-2.912-0.224-4.32l2.656-1.232c-1.344-1.44-2.672-2.88-4.016-4.304 2.048-0.304 3.952-1.056 5.2-2.8 1.792 2.832 2.912 6.304 5.824 8.224 1.536-1.712 3.152-3.568 2.928-6.048-1.808-1.248-3.584-2.512-5.344-3.792 2.944-0.784 6.976-0.32 8.624-3.488-1.12-0.912-2.224-1.808-3.328-2.688 2.512-2.832 5.104-5.584 7.712-8.336 0.112 2.752 0.496 5.488 1.728 7.984 1.68-1.328 3.52-2.496 4.976-4.08 3.232-5.44 9.376-8.048 14.64-11.152-1.024-0.432-3.072-1.264-4.096-1.696 2.08-1.456 4.16-2.88 6.272-4.272 2 2.208 1.392 6.144 3.904 7.744 4.048-2.656 3.344-7.28 1.504-11.008 0.624-0.384 1.856-1.12 2.48-1.488 2.912 1.856 1.872 5.712 2.88 8.56 1.232 1.712 3.008 2.944 4.576 4.352-0.88-2.768-1.68-5.568-2.224-8.416 6.096-0.128 7.824-7.056 12.688-9.376 3.952-0.192 7.488 3.136 11.552 1.888-3.408-3.712-3.872-8.496-1.712-12.992 1.68 2.848 1.36 6.208 1.344 9.376 3.696-0.752 7.856-2.336 8.384-6.624-1.072-0.656-2.16-1.296-3.216-1.952 5.472-1.776 10.368-5.312 16.272-5.648 0.88 0.864 1.792 1.712 2.704 2.576 4.112-4.256 8.528-8.32 11.008-13.824 0.016 2.176 0.016 4.352 0.016 6.528 1.632-1.888 3.248-3.76 4.96-5.584 3.12-0.096 6.928 1.632 9.584-0.56-3.712-1.024-7.616-2.032-9.968-5.376 0.688-0.784 1.408-1.568 2.128-2.336 1.184 1.168 2.384 2.336 3.584 3.504 3.456-3.408 7.152-6.592 11.008-9.552a98.032 98.032 0 0 0-4.304-7.456z" fill="#FFE77E" p-id="696"></path><path d="M305.12 261.872c9.728-5.264 19.744-10.768 30.864-12.208 6.944-0.88 12.224 4.64 15.952 9.744 10.752 17.104 15.072 37.44 17.12 57.296 1.312 19.872 1.008 42.096-12.112 58.384-9.36-20.512-28.24-35.28-49.04-43.008-25.456-9.52-53.248-11.936-80.192-9.632 5.2-6.08 11.152-11.456 17.088-16.8 18.72-16.368 38.768-31.312 60.32-43.776zM540.72 254.208c12.208-7.888 27.312-3.76 40.24-0.16 36.064 11.104 70.16 27.792 103.184 45.92 10.32 5.984 20.928 11.616 30.464 18.848-30.368-2.256-61.472-4.304-91.28 3.36-25.056 6.32-49.552 17.824-67.552 36.752-7.056 7.536-12.848 16.352-16.304 26.112-12.56-8.816-23.008-21.408-26.976-36.432-4.032-16.16-1.552-33.12 1.552-49.216 4.096-17.072 11.344-35.232 26.672-45.184z" fill="#FFF9E0" p-id="697"></path><path d="M913.632 313.056c5.408 1.952 10.672-1.472 15.856-2.656 35.52 65.776 54.848 140.16 56.016 214.896-52.8-28.48-109.792-49.744-169.088-59.616 12.544-11.296 22.432-26.144 25.504-42.944 3.568-19.632-0.352-40.944-12.256-57.168 2.192 0.928 4.496 1.6 6.816 2.208 2.32-1.488 4.624-2.992 6.992-4.432 1.696 0.656 3.392 1.328 5.104 2 1.28-3.328 3.28-6.416 3.504-10.064 1.168 1.968 2.368 3.936 3.6 5.888 0.8-1.728 1.744-3.392 2.656-5.072 2.16 0.112 4.336 0.208 6.512 0.304-0.976-2.976-2.208-5.904-2.512-9.04 1.28-4.912 6.976-2.64 10.544-2.512 1.76-2.352 3.76-4.496 5.952-6.48-0.528-0.832-1.584-2.496-2.128-3.328 1.536-0.112 3.488-0.752 4.496 0.912 2.976 3.904 5.296 8.368 9.184 11.536a102.176 102.176 0 0 1-1.504-6.832c2.32-0.576 5.056-0.624 6.576-2.784-0.736-1.776-1.44-3.568-2.096-5.376 2.064-0.48 4.176-0.592 6.304-0.592-0.112-6.24 9.712-8.256 7.312-14.672 2.192-1.424 4.416-2.832 6.656-4.176z" fill="#FFE574" p-id="698"></path><path d="M623.328 322.176c29.808-7.664 60.912-5.616 91.28-3.36 25.856 2.48 51.904 6.896 75.872 17.296 15.072 6.576 29.344 16.048 39.184 29.456 11.904 16.224 15.824 37.536 12.256 57.168-3.072 16.8-12.96 31.648-25.504 42.944-25.504 22.256-59.408 32.016-92.48 35.424-29.344 2.592-59.008 1.264-88.16-2.896-17.264-2.88-34.464-7.136-50.32-14.704-19.6-9.088-36.832-24.848-44.112-45.568-5.728-16.848-7.68-35.792-1.872-52.896 3.456-9.76 9.248-18.576 16.304-26.112 18-18.928 42.496-30.432 67.552-36.752m-39.376 45.888c-10.672 8.24-20.32 19.52-22.096 33.328-1.312 16.736 3.2 34.896 15.968 46.528 16.064 14.624 37.872 20.592 58.768 24.336 34.704 5.456 70.304 6.304 105.024 0.704-17.296-5.952-31.936-19.248-39.472-35.92-6.864-14.944-8.048-32.416-3.168-48.128 5.344-17.984 18.672-33.28 35.584-41.36-1.472-0.704-3.12-0.992-4.704-1.184a461.4896 461.4896 0 0 0-64.272-3.856c-28.832 0.304-58.272 8.192-81.632 25.552zM293.584 557.792c16.528-3.776 33.616-3.888 50.496-4.176 19.504 0.016 39.168 0 58.416 3.536 9.648 1.888 19.616 4.752 27.184 11.36 7.888 6.784 10.688 18.576 7.296 28.32-2.592 7.904-7.44 14.816-12.288 21.488-16.512 21.136-37.248 38.832-59.424 53.648-0.464 22.064 4.224 44.8 15.936 63.728 2.96 5.216 7.808 8.896 11.376 13.648 40.688 2.592 82.016-1.008 121.152-12.768 28.496-8.528 55.984-21.152 79.936-38.944 6.656-5.264 17.28-3.808 22.208 3.12 5.632 7.008 3.728 18.32-3.792 23.168-49.216 36.112-110.064 54-170.512 57.728-32.64 1.76-65.648 0.32-97.696-6.336-34.96-7.856-69.408-22.768-95.424-47.936-7.296-6.384-6.816-19.152 1.072-24.832 5.712-4.544 14.656-4.272 20.048 0.672 21.424 21.136 50.096 33.168 78.944 40.256-11.504-21.792-15.472-46.768-15.76-71.184-14.08-9.088-26.176-20.928-37.248-33.424-10.48-12.512-20.56-25.904-25.968-41.488-3.008-8.64-3.632-18.944 1.648-26.848 5.136-7.344 14.032-10.656 22.4-12.736z" fill="#624924" p-id="699"></path><path d="M147.76 357.312c21.568-20.448 50.672-31.696 79.952-34.864 26.944-2.304 54.736 0.112 80.192 9.632 20.8 7.728 39.68 22.496 49.04 43.008 6.384 14.192 8.736 30.08 7.52 45.568-1.92 20.176-13.136 38.48-28.016 51.824-23.44 21.168-54.704 32.304-85.936 34.432-29.712 0.912-60.896-1.344-87.664-15.44-10.24-5.504-19.328-13.216-26.096-22.704-11.776-16.656-15.648-37.616-15.072-57.696 0.688-20.592 11.264-39.84 26.08-53.76m16.432 19.76c-10.32 10.16-17.776 24.176-16.944 38.976-0.08 16.752 4.48 34.848 17.808 46.032 16.64 14.112 39.312 17.6 60.4 19.072 20.048 1.424 40.56-0.208 59.504-7.312-3.76-0.864-7.648-1.008-11.408-1.872-18.48-3.712-35.376-15.472-44.56-32.016-10.128-17.904-10.8-40.672-2.048-59.248 6.88-14.88 19.68-27.008 35.008-32.864-34.528-3.376-72.288 4.32-97.76 29.232z" fill="#614824" p-id="700"></path><path d="M583.952 368.064c23.36-17.36 52.8-25.248 81.632-25.552 21.488-0.208 42.976 1.072 64.272 3.856 1.584 0.192 3.232 0.48 4.704 1.184-16.912 8.08-30.24 23.376-35.584 41.36-4.88 15.712-3.696 33.184 3.168 48.128 7.536 16.672 22.176 29.968 39.472 35.92-34.72 5.6-70.32 4.752-105.024-0.704-20.896-3.744-42.704-9.712-58.768-24.336-12.768-11.632-17.28-29.792-15.968-46.528 1.776-13.808 11.424-25.088 22.096-33.328zM164.192 377.072c25.472-24.912 63.232-32.608 97.76-29.232-15.328 5.856-28.128 17.984-35.008 32.864-8.752 18.576-8.08 41.344 2.048 59.248 9.184 16.544 26.08 28.304 44.56 32.016 3.76 0.864 7.648 1.008 11.408 1.872-18.944 7.104-39.456 8.736-59.504 7.312-21.088-1.472-43.76-4.96-60.4-19.072-13.328-11.184-17.888-29.28-17.808-46.032-0.832-14.8 6.624-28.816 16.944-38.976z" fill="#FFFFFF" p-id="701"></path><path d="M375.936 463.568c25.68-5.12 52.96-3.28 77.472 6.096 22.992 8.592 41.968 24.8 63.952 35.376 22.864 11.504 49.552 14.256 74.624 9.888 15.52-2.704 30.08-9.152 43.792-16.72 29.152 4.16 58.816 5.488 88.16 2.896 33.072-3.408 66.976-13.168 92.48-35.424 59.296 9.872 116.288 31.136 169.088 59.616 1.392 74.352-15.024 149.024-47.936 215.744-27.616 56.304-66.656 106.944-113.952 148.112-48.88 42.56-106.592 74.96-168.464 94.24-67.184 21.056-139.104 26.592-208.752 16.512-67.312-9.648-132.4-34.288-189.28-71.504-92.496-60.08-162.768-153.568-194.128-259.376-18-59.872-23.712-123.36-17.136-185.52 30.016-6.544 60.4-11.168 90.896-14.736 6.768 9.488 15.856 17.2 26.096 22.704 26.768 14.096 57.952 16.352 87.664 15.44 11.616 10.96 28.848 17.456 44.56 12.24 14.048-4.928 22.768-17.76 32.928-27.824 12.784-13.712 29.392-24.144 47.936-27.76m-82.352 94.224c-8.368 2.08-17.264 5.392-22.4 12.736-5.28 7.904-4.656 18.208-1.648 26.848 5.408 15.584 15.488 28.976 25.968 41.488 11.072 12.496 23.168 24.336 37.248 33.424 0.288 24.416 4.256 49.392 15.76 71.184-28.848-7.088-57.52-19.12-78.944-40.256-5.392-4.944-14.336-5.216-20.048-0.672-7.888 5.68-8.368 18.448-1.072 24.832 26.016 25.168 60.464 40.08 95.424 47.936 32.048 6.656 65.056 8.096 97.696 6.336 60.448-3.728 121.296-21.616 170.512-57.728 7.52-4.848 9.424-16.16 3.792-23.168-4.928-6.928-15.552-8.384-22.208-3.12-23.952 17.792-51.44 30.416-79.936 38.944-39.136 11.76-80.464 15.36-121.152 12.768-3.568-4.752-8.416-8.432-11.376-13.648-11.712-18.928-16.4-41.664-15.936-63.728 22.176-14.816 42.912-32.512 59.424-53.648 4.848-6.672 9.696-13.584 12.288-21.488 3.392-9.744 0.592-21.536-7.296-28.32-7.568-6.608-17.536-9.472-27.184-11.36-19.248-3.536-38.912-3.52-58.416-3.536-16.88 0.288-33.968 0.4-50.496 4.176z" fill="#FFF3D3" p-id="702"></path></svg>